<svg width="1280" height="889" viewBox="0 0 1280 889" fill="none" xmlns="http://www.w3.org/2000/svg">
<g clip-path="url(#clip0_198_7)">
<path d="M1280 0H0V1012H1280V0Z" fill="#140021"/>
<path d="M0 921.5L183.467 937H365.511L548.978 921.5V1162H731.022V1155.16H914.489V1062.81H1096.53H1280V949.934V23H1096.53H914.489H731.022H548.978H365.511H183.467H0V921.5Z" fill="#9900FF"/>
<path d="M0 499.418H183.467V371.295H365.511V541.254H548.978V413.131H731.022V449.738H914.489V473.271H1096.53V638H1280V546.484V0H1096.53H914.489H731.022H548.978H365.511H183.467H0V499.418Z" fill="#7700C6"/>
<path d="M0 235.369H183.467V211.568H365.511V309.418H548.978V370.244H731.022V314.707H914.489V166.61H1096.53V370.244H1280V306.773V0H1096.53H914.489H731.022H548.978H365.511H183.467H0V235.369Z" fill="#560090"/>
</g>
<defs>
<clipPath id="clip0_198_7">
<rect width="1280" height="889" fill="white"/>
</clipPath>
</defs>
</svg>
