<svg width="1280" height="1953" viewBox="0 0 1280 1953" fill="none" xmlns="http://www.w3.org/2000/svg">
<path d="M0 1951.81H183.467H365.511H548.978H731.022H914.489H1096.53H1280V1838.93V912H1096.53H914.489H731.022H548.978H365.511H183.467H0V1951.81Z" fill="#9900FF"/>
<path d="M0 1009H193H371H548.978V1162H731.022V1155.16H914.489V1062.81H1096.53H1280V949.934V23H1096.53H914.489H731.022H548.978H365.511H183.467H0V1009Z" fill="#9900FF"/>
<path d="M0 1624.42H183.467V1496.3H365.511V1666.25H548.978V1538.13H731.022V1574.74H914.489V1598.27H1096.53V1763H1280V1671.48V1125H1096.53H914.489H731.022H548.978H365.511H183.467H0V1624.42Z" fill="#7700C6"/>
<path d="M1280 782.582H1096.53V910.705H914.489V740.746L731.022 740.746L731.022 868.869L548.978 868.869V832.262H365.511L365.511 808.729H183.467V644H0V735.516V1282H183.467L365.511 1282H548.978H731.022H914.489H1096.53H1280V782.582Z" fill="#7700C6"/>
<path d="M0 1309.37H183.467V1285.57H365.511V1383.42H548.978V1444.24H731.022V1388.71H914.489V1240.61H1096.53V1444.24H1280V1380.77V1074H1096.53H914.489H731.022H548.978H365.511H183.467H0V1309.37Z" fill="#560090"/>
<path d="M1280 1046.87H1096.53V1070.68H914.489V972.826H731.022V912L548.978 912V967.537H365.511V1115.63L183.467 1115.63V912L0 912V975.47V1282.24H183.467L365.511 1282.24H548.978H731.022H914.489H1096.53H1280V1046.87Z" fill="#560090"/>
<path d="M0 499.418H183.467V371.295H365.511V541.254H548.978V413.131H731.022V449.738H914.489V473.271H1096.53V638H1280V546.484V0H1096.53H914.489H731.022H548.978H365.511H183.467H0V499.418Z" fill="#7700C6"/>
<path d="M0 235.369H183.467V211.568H365.511V309.418H548.978V370.244H731.022V314.707H914.489V166.61H1096.53V370.244H1280V306.773V0H1096.53H914.489H731.022H548.978H365.511H183.467H0V235.369Z" fill="#560090"/>
</svg>
